<mxfile host="app.diagrams.net" modified="2023-04-10T09:55:09.420Z" agent="Mozilla/5.0 (Windows NT 10.0; Win64; x64) AppleWebKit/537.36 (KHTML, like Gecko) Chrome/111.0.0.0 Safari/537.36" version="21.1.5" etag="fA4POQkwufZN70_XLbI7" type="github">
  <diagram name="Trang-1" id="QbFSqJrpSswx8eau4Ai6">
    <mxGraphModel>
      <root>
        <mxCell id="0" />
        <mxCell id="1" parent="0" />
      </root>
    </mxGraphModel>
  </diagram>
</mxfile>
